<svg width="18" height="26" viewBox="0 0 18 26" fill="none" xmlns="http://www.w3.org/2000/svg">
<circle cx="9" cy="15" r="9" fill="#3EB54A"/>
<path d="M5.84 12.426C5.90533 11.5673 6.23667 10.8953 6.834 10.41C7.43133 9.92467 8.206 9.682 9.158 9.682C9.79267 9.682 10.3387 9.79867 10.796 10.032C11.2627 10.256 11.6127 10.564 11.846 10.956C12.0887 11.348 12.21 11.7913 12.21 12.286C12.21 12.8647 12.042 13.364 11.706 13.784C11.3793 14.204 10.95 14.4747 10.418 14.596V14.666C11.0247 14.8153 11.5053 15.1093 11.86 15.548C12.2147 15.9867 12.392 16.5607 12.392 17.27C12.392 17.802 12.2707 18.2827 12.028 18.712C11.7853 19.132 11.4213 19.4633 10.936 19.706C10.4507 19.9487 9.86733 20.07 9.186 20.07C8.19667 20.07 7.38467 19.8133 6.75 19.3C6.11533 18.7773 5.76067 18.04 5.686 17.088H6.918C6.98333 17.648 7.212 18.1053 7.604 18.46C7.996 18.8147 8.51867 18.992 9.172 18.992C9.82533 18.992 10.32 18.824 10.656 18.488C11.0013 18.1427 11.174 17.6993 11.174 17.158C11.174 16.458 10.9407 15.954 10.474 15.646C10.0073 15.338 9.30267 15.184 8.36 15.184H8.038V14.12H8.374C9.23267 14.1107 9.88133 13.9707 10.32 13.7C10.7587 13.42 10.978 12.9907 10.978 12.412C10.978 11.9173 10.8147 11.5207 10.488 11.222C10.1707 10.9233 9.71333 10.774 9.116 10.774C8.53733 10.774 8.07067 10.9233 7.716 11.222C7.36133 11.5207 7.15133 11.922 7.086 12.426H5.84Z" fill="#EFEFEF"/>
</svg>
