<svg width="18" height="26" viewBox="0 0 18 26" fill="none" xmlns="http://www.w3.org/2000/svg">
<circle cx="9" cy="15" r="9" fill="#3EB54A"/>
<path d="M5.714 18.978C6.89933 18.026 7.828 17.2467 8.5 16.64C9.172 16.024 9.73667 15.3847 10.194 14.722C10.6607 14.05 10.894 13.392 10.894 12.748C10.894 12.1413 10.7447 11.6653 10.446 11.32C10.1567 10.9653 9.68533 10.788 9.032 10.788C8.39733 10.788 7.90267 10.9887 7.548 11.39C7.20267 11.782 7.016 12.3093 6.988 12.972H5.756C5.79333 11.9267 6.11067 11.1193 6.708 10.55C7.30533 9.98067 8.07533 9.696 9.018 9.696C9.97933 9.696 10.74 9.962 11.3 10.494C11.8693 11.026 12.154 11.7587 12.154 12.692C12.154 13.4667 11.9207 14.2227 11.454 14.96C10.9967 15.688 10.474 16.332 9.886 16.892C9.298 17.4427 8.54667 18.0867 7.632 18.824H12.448V19.888H5.714V18.978Z" fill="#EFEFEF"/>
</svg>
