<svg viewBox="0 0 200 200" xmlns="http://www.w3.org/2000/svg">
  <path fill="#3EB54A" d="M27.3,-31.2C41.8,-39.1,64.1,-44.5,63.2,-38.9C62.2,-33.3,38,-16.6,36.7,-0.7C35.5,15.2,57.1,30.3,58.2,36.1C59.2,41.9,39.7,38.4,26.5,37.4C13.4,36.5,6.7,38.2,1.6,35.4C-3.5,32.6,-6.9,25.3,-14.9,23.3C-22.9,21.2,-35.5,24.5,-36.9,21.5C-38.4,18.5,-28.7,9.2,-23.9,2.8C-19.2,-3.7,-19.2,-7.4,-19.2,-12.9C-19.2,-18.4,-19.1,-25.6,-15.9,-24.3C-12.7,-22.9,-6.3,-12.9,0.1,-13C6.5,-13.1,12.9,-23.4,27.3,-31.2Z" transform="translate(100 100)" />
</svg>