<svg width="321" height="175" viewBox="0 0 321 175" fill="none" xmlns="http://www.w3.org/2000/svg">
<g filter="url(#filter0_i)">
<path d="M66.0409 87.6944C51.0945 83.2573 28.6677 64.055 14.1821 50.5192C8.92174 45.6038 0 49.3079 0 56.5073V160.913C0 165.331 3.58173 168.913 8 168.913H313C317.418 168.913 321 165.331 321 160.913V90.5343C321 88.6972 320.391 86.9444 319.211 85.5362C308.68 72.966 253.876 9.4602 214.731 0.988027C155.337 -11.8663 125.242 105.269 66.0409 87.6944Z" fill="#3EB54A"/>
<path d="M66.0409 116.464C50.6955 113.181 27.4652 98.6801 13.0394 88.8989C7.5867 85.2017 0 89.0793 0 95.6673V167C0 171.418 3.58173 175 8 175H313C317.418 175 321 171.418 321 167V120.061C321 117.773 320.028 115.602 318.287 114.117C305.802 103.464 252.845 59.918 214.731 53.9728C155.337 44.7085 125.242 129.13 66.0409 116.464Z" fill="#EFEFEF"/>
</g>
<defs>
<filter id="filter0_i" x="0" y="0" width="321" height="175" filterUnits="userSpaceOnUse" color-interpolation-filters="sRGB">
<feFlood flood-opacity="0" result="BackgroundImageFix"/>
<feBlend mode="normal" in="SourceGraphic" in2="BackgroundImageFix" result="shape"/>
<feColorMatrix in="SourceAlpha" type="matrix" values="0 0 0 0 0 0 0 0 0 0 0 0 0 0 0 0 0 0 127 0" result="hardAlpha"/>
<feOffset dx="1" dy="5"/>
<feGaussianBlur stdDeviation="2"/>
<feComposite in2="hardAlpha" operator="arithmetic" k2="-1" k3="1"/>
<feColorMatrix type="matrix" values="0 0 0 0 0 0 0 0 0 0 0 0 0 0 0 0 0 0 0.25 0"/>
<feBlend mode="normal" in2="shape" result="effect1_innerShadow"/>
</filter>
</defs>
</svg>
