<svg width="1400" height="147" viewBox="0 0 1400 147" fill="none" xmlns="http://www.w3.org/2000/svg">
<g filter="url(#filter0_i)">
<path d="M66.0409 73.6633C50.8844 69.8838 28.0357 53.3503 13.576 41.9595C8.18184 37.7103 0 41.5275 0 48.3943V133.887C0 138.305 3.58173 141.887 8 141.887H313C317.418 141.887 1400 138.305 1400 133.887V76.8989C1400 74.8235 320.231 72.8673 318.762 71.4009C307.207 59.8635 253.349 7.85076 214.731 0.829942C155.337 -9.96765 125.242 88.4261 66.0409 73.6633Z" fill="#3EB54A"/>
<path d="M66.0409 97.8297C50.4815 95.0333 26.8156 82.5497 12.441 74.3336C6.97807 71.2111 0 75.1242 0 81.4165V139C0 143.418 3.58173 147 8 147H313C317.418 147 1400 143.418 1400 139V101.845C1400 99.3183 1400.837 96.9638 317.781 95.4958C304.429 85.965 252.35 50.2662 214.731 45.3372C155.337 37.5551 125.242 108.47 66.0409 97.8297Z" fill="#EFEFEF"/>
</g>
<defs>
<filter id="filter0_i" x="0" y="0" width="1400" height="151" filterUnits="userSpaceOnUse" color-interpolation-filters="sRGB">
<feFlood flood-opacity="0" result="BackgroundImageFix"/>
<feBlend mode="normal" in="SourceGraphic" in2="BackgroundImageFix" result="shape"/>
<feColorMatrix in="SourceAlpha" type="matrix" values="0 0 0 0 0 0 0 0 0 0 0 0 0 0 0 0 0 0 127 0" result="hardAlpha"/>
<feOffset dx="1" dy="5"/>
<feGaussianBlur stdDeviation="2"/>
<feComposite in2="hardAlpha" operator="arithmetic" k2="-1" k3="1"/>
<feColorMatrix type="matrix" values="0 0 0 0 0 0 0 0 0 0 0 0 0 0 0 0 0 0 0.25 0"/>
<feBlend mode="normal" in2="shape" result="effect1_innerShadow"/>
</filter>
</defs>
</svg>